<svg width="1440" height="920" viewBox="0 0 1440 920" fill="none" xmlns="http://www.w3.org/2000/svg">
<g clip-path="url(#clip0_1557_195)">
<g clip-path="url(#clip1_1557_195)">
<path d="M1059.16 612.941C1069.53 618.52 1076 629.345 1076 641.121M974.618 612.427C983.017 618.435 988 628.127 988 638.453M891.761 612.75C897.373 618.69 900.5 626.553 900.5 634.725M465.951 612.432C457.512 618.435 452.5 628.151 452.5 638.507M382.355 612.944C371.975 618.521 365.5 629.351 365.5 641.133M1234.76 614.417C1247.5 618.964 1256 631.029 1256 644.554M296.843 613.67C285.105 618.725 277.5 630.28 277.5 643.06M1146.13 613.678C1157.88 618.728 1165.5 630.289 1165.5 643.079M208.223 614.409C195.495 618.962 187 631.022 187 644.54M550.708 612.756C545.115 618.694 542 626.543 542 634.7M688.75 441.482L699.423 438.187L690.23 441.475L688.75 441.482ZM685.457 442.5L687.393 442.49L659.405 452.5H653.073L685.457 442.5ZM662.375 452.5L690.406 442.474L693.127 442.46L669.813 452.5H662.375ZM649.835 453.5H656.61L622.078 465.851H609.839L649.835 453.5ZM625.047 465.851L659.579 453.5H667.491L638.811 465.851H625.047ZM606.601 466.851H619.282L581.406 480.399H562.732L606.601 466.851ZM584.376 480.399L622.251 466.851H636.49L605.033 480.399H584.376ZM559.494 481.399H578.61L527.947 499.52H500.814L559.494 481.399ZM530.916 499.52L581.58 481.399H602.711L560.633 499.52H530.916ZM497.575 500.52H525.151L439.934 531H400.5V532H437.138L354.008 561.734L299.316 561.745L497.575 500.52ZM442.904 531L528.12 500.52H558.311L487.537 531H442.904ZM356.979 561.733L440.108 532H485.215L416.204 561.721L356.979 561.733ZM418.733 561.72L487.743 532H531.957L476.662 561.708L418.733 561.72ZM478.776 561.708L534.07 532H578.156L536.411 561.695L478.776 561.708ZM579.562 531H535.931L592.662 500.52H622.409L579.562 531ZM538.137 561.695L579.881 532H626.103L598.139 561.682L538.137 561.695ZM627.045 531H581.287L624.134 500.52H655.76L627.045 531ZM599.513 561.682L627.477 532H673.606L659.708 561.67L599.513 561.682ZM674.074 531H628.419L657.134 500.52H688.352L674.074 531ZM660.812 561.669L674.71 532H720.5V561.657L660.812 561.669ZM720.5 531H675.178L689.456 500.52H720.5V531ZM721.5 561.657V532H767.29L781.176 561.644L721.5 561.657ZM766.822 531H721.5V500.52H752.544L766.822 531ZM782.28 561.644L768.394 532H814.786L842.779 561.631L782.28 561.644ZM813.841 531H767.926L753.648 500.52H785.045L813.841 531ZM844.155 561.631L816.162 532H861.329L902.733 561.619L844.155 561.631ZM859.931 531H815.217L786.421 500.52H817.323L859.931 531ZM904.451 561.618L863.048 532H907.667L962.694 561.606L904.451 561.618ZM905.809 531H861.65L819.042 500.52H849.157L905.809 531ZM964.804 561.606L909.778 532H954.783L1023.65 561.593L964.804 561.606ZM952.456 531H907.919L851.268 500.52H881.522L952.456 531ZM1026.18 561.593L957.316 532H1002.42L1085.27 561.58L1026.18 561.593ZM999.618 531H954.989L884.055 500.52H914.241L999.618 531ZM1088.25 561.58L1005.39 532H1042.17L1140.6 561.569L1088.25 561.58ZM1038.97 531H1002.59L917.216 500.52H941.545L1038.97 531ZM1091.05 562.579L1143.93 562.568L1263.61 598.523L1191.97 598.612L1091.05 562.579ZM1194.77 599.608L1266.93 599.519L1320.56 615.631C1333.88 619.632 1343 631.893 1343 645.8V682.5H1256.5V644.554C1256.5 630.817 1247.86 618.564 1234.93 613.946L1194.77 599.608ZM1256.5 683.5H1343V763.5H1256.5V683.5ZM1256.5 764.5H1343V847.5H1256.5V764.5ZM1256.5 848.5H1343V932.5H1256.5V848.5ZM1256.5 933.5H1343V1019.5H1256.5V933.5ZM1255.5 933.5V1019.5H1166V933.5H1255.5ZM1165 933.5V1019.5H1076.5V933.5H1165ZM1075.5 933.5V1019.5H988.5V933.5H1075.5ZM987.5 933.5V1019.5H901V933.5H987.5ZM900 933.5V1019.5H810.5V933.5H900ZM809.5 933.5V1019.5H721.5V933.5H809.5ZM720.5 933.5V1019.5H632.5V933.5H720.5ZM631.5 933.5V1019.5H542.5V933.5H631.5ZM541.5 933.5V1019.5H453V933.5H541.5ZM452 933.5V1019.5H366V933.5H452ZM365 933.5V1019.5H278V933.5H365ZM277 933.5V1019.5H187.5V933.5H277ZM186.5 933.5V1019.5H97.5V933.5H186.5ZM186.5 932.5H97.5V848.5H186.5V932.5ZM186.5 847.5H97.5V764.5H186.5V847.5ZM186.5 763.5H97.5V683.5H186.5V763.5ZM186.5 682.5H97.5V645.803C97.5 631.895 106.621 619.633 119.941 615.634L169.074 600.88L244.825 600.786L208.055 613.938C195.127 618.562 186.5 630.81 186.5 644.54V682.5ZM247.63 599.783L172.418 599.876L296.074 562.746L351.211 562.734L247.63 599.783ZM250.61 599.779L354.182 562.734L413.881 562.721L328.055 599.683L250.61 599.779ZM330.591 599.68L416.41 562.721L474.8 562.708L406.161 599.586L330.591 599.68ZM408.279 599.584L476.914 562.708L535.005 562.696L483.28 599.491L408.279 599.584ZM485.008 599.488L536.731 562.695L597.196 562.683L562.612 599.392L485.008 599.488ZM563.987 599.391L598.57 562.682L659.24 562.67L642.084 599.294L563.987 599.391ZM643.189 599.292L660.344 562.669L720.5 562.657V599.196L643.189 599.292ZM721.5 599.195V562.657L781.644 562.644L798.721 599.099L721.5 599.195ZM799.824 599.098L782.748 562.644L843.724 562.631L878.084 599.001L799.824 599.098ZM879.458 598.999L845.099 562.631L904.131 562.618L954.857 598.906L879.458 598.999ZM956.573 598.904L905.849 562.618L964.552 562.606L1031.84 598.81L956.573 598.904ZM1033.95 598.808L966.662 562.605L1025.98 562.593L1110.04 598.713L1033.95 598.808ZM1112.57 598.71L1028.51 562.592L1088.07 562.58L1189.01 598.615L1112.57 598.71ZM1114.89 599.707L1191.8 599.612L1234.59 614.888C1247.13 619.364 1255.5 631.24 1255.5 644.554V682.5H1166V643.079C1166 630.089 1158.27 618.347 1146.33 613.219L1114.89 599.707ZM1166 683.5H1255.5V763.5H1166V683.5ZM1166 764.5H1255.5V847.5H1166V764.5ZM1166 848.5H1255.5V932.5H1166V848.5ZM1165 848.5V932.5H1076.5V848.5H1165ZM1075.5 848.5V932.5H988.5V848.5H1075.5ZM987.5 848.5V932.5H901V848.5H987.5ZM900 848.5V932.5H810.5V848.5H900ZM809.5 848.5V932.5H721.5V848.5H809.5ZM720.5 848.5V932.5H632.5V848.5H720.5ZM631.5 848.5V932.5H542.5V848.5H631.5ZM541.5 848.5V932.5H453V848.5H541.5ZM452 848.5V932.5H366V848.5H452ZM365 848.5V932.5H278V848.5H365ZM277 848.5V932.5H187.5V848.5H277ZM277 847.5H187.5V764.5H277V847.5ZM277 763.5H187.5V683.5H277V763.5ZM277 682.5H187.5V644.54C187.5 631.233 195.862 619.361 208.391 614.88L247.804 600.783L325.727 600.686L296.645 613.211C284.723 618.345 277 630.08 277 643.06V682.5ZM297.04 614.129L328.262 600.683L404.296 600.589L382.118 612.504C371.576 618.168 365 629.167 365 641.133V682.5H278V643.06C278 630.479 285.486 619.105 297.04 614.129ZM382.591 613.385L406.413 600.586L481.872 600.492L465.661 612.024C457.09 618.121 452 627.989 452 638.507V682.5H366V641.133C366 629.535 372.374 618.874 382.591 613.385ZM466.241 612.839L483.6 600.49L561.669 600.393L550.344 612.414C544.664 618.443 541.5 626.415 541.5 634.7V682.5H453V638.507C453 628.313 457.934 618.748 466.241 612.839ZM551.072 613.099L563.044 600.392L641.615 600.294L634.569 615.337C632.548 619.652 631.5 624.359 631.5 629.123V682.5H542.5V634.7C542.5 626.67 545.566 618.944 551.072 613.099ZM635.474 615.761L642.72 600.293L720.5 600.196V622V682.5H632.5V629.123C632.5 624.505 633.515 619.943 635.474 615.761ZM721.5 622V600.195L799.189 600.099L806.526 615.761C808.485 619.943 809.5 624.505 809.5 629.123V682.5H721.5V622ZM807.431 615.337L800.292 600.097L879.028 600L891.398 613.093C896.922 618.941 900 626.681 900 634.725V682.5H810.5V629.123C810.5 624.359 809.452 619.652 807.431 615.337ZM892.125 612.406L880.402 599.998L956.252 599.904L974.327 612.834C982.595 618.748 987.5 628.288 987.5 638.453V682.5H901V634.725C901 626.425 897.824 618.44 892.125 612.406ZM974.909 612.02L957.968 599.902L1033.7 599.808L1058.92 613.381C1069.13 618.873 1075.5 629.529 1075.5 641.121V682.5H988.5V638.453C988.5 627.966 983.439 618.122 974.909 612.02ZM1059.4 612.5L1035.8 599.805L1112.36 599.71L1145.94 614.138C1157.5 619.108 1165 630.489 1165 643.079V682.5H1076.5V641.121C1076.5 629.161 1069.93 618.167 1059.4 612.5ZM1076.5 683.5H1165V763.5H1076.5V683.5ZM1076.5 764.5H1165V847.5H1076.5V764.5ZM1075.5 764.5V847.5H988.5V764.5H1075.5ZM987.5 764.5V847.5H901V764.5H987.5ZM900 764.5V847.5H810.5V764.5H900ZM809.5 764.5V847.5H721.5V764.5H809.5ZM720.5 764.5V847.5H632.5V764.5H720.5ZM631.5 764.5V847.5H542.5V764.5H631.5ZM541.5 764.5V847.5H453V764.5H541.5ZM452 764.5V847.5H366V764.5H452ZM365 764.5V847.5H278V764.5H365ZM365 763.5H278V683.5H365V763.5ZM366 763.5V683.5H452V763.5H366ZM453 763.5V683.5H541.5V763.5H453ZM542.5 763.5V683.5H631.5V763.5H542.5ZM632.5 763.5V683.5H720.5V763.5H632.5ZM721.5 763.5V683.5H809.5V763.5H721.5ZM810.5 763.5V683.5H900V763.5H810.5ZM901 763.5V683.5H987.5V763.5H901ZM988.5 763.5V683.5H1075.5V763.5H988.5ZM693.243 441.459L706.266 436.801L695.477 441.447L693.243 441.459ZM698.037 441.434L710.569 436.037L700.548 441.421L698.037 441.434ZM695.686 442.446L698.668 442.431L679.927 452.5H672.341L695.686 442.446ZM682.039 452.5L700.802 442.42L704.109 442.402L689.914 452.5H682.039ZM670.019 453.5H678.065L655.076 465.851H641.34L670.019 453.5ZM657.189 465.851L680.178 453.5H688.508L671.145 465.851H657.189ZM639.018 466.851H653.215L628 480.399H607.561L639.018 466.851ZM630.113 480.399L655.328 466.851H669.739L650.695 480.399H630.113ZM605.239 481.399H626.139L592.41 499.52H563.162L605.239 481.399ZM594.523 499.52L628.252 481.399H649.289L623.815 499.52H594.523ZM656.702 499.52H625.54L651.014 481.399H673.774L656.702 499.52ZM674.716 480.399H652.42L671.464 466.851H687.479L674.716 480.399ZM688.422 465.851H672.87L690.233 453.5H700.058L688.422 465.851ZM701 452.5H691.639L705.846 442.393L710.545 442.369L701 452.5ZM711.491 441.364L707.263 441.386L720.021 432.31L711.491 441.364ZM712.872 441.357L719.223 434.616L716.073 441.34L712.872 441.357ZM711.925 442.361L715.603 442.342L710.845 452.5H702.374L711.925 442.361ZM711.949 452.5L716.71 442.337L720.5 442.317V452.5H711.949ZM701.432 453.5H710.377L704.591 465.851H689.795L701.432 453.5ZM705.695 465.851L711.481 453.5H720.5V465.851H705.695ZM688.853 466.851H704.123L697.777 480.399H676.09L688.853 466.851ZM698.881 480.399L705.227 466.851H720.5V480.399H698.881ZM675.148 481.399H697.309L688.82 499.52H658.076L675.148 481.399ZM689.924 499.52L698.413 481.399H720.5V499.52H689.924ZM752.076 499.52H721.5V481.399H743.587L752.076 499.52ZM743.119 480.399H721.5V466.851H736.773L743.119 480.399ZM736.305 465.851H721.5V453.5H730.519L736.305 465.851ZM730.051 452.5H721.5V442.312L725.269 442.292L730.051 452.5ZM724.802 441.294L721.5 441.312V434.246L724.802 441.294ZM725.903 441.289L722.772 434.603L729.072 441.272L725.903 441.289ZM726.37 442.286L730.012 442.267L739.679 452.5H731.155L726.37 442.286ZM741.055 452.5L731.381 442.26L735.848 442.237L750.196 452.5H741.055ZM731.623 453.5H740.624L752.293 465.851H737.409L731.623 453.5ZM753.669 465.851L742 453.5H751.594L768.859 465.851H753.669ZM737.877 466.851H753.237L766.036 480.399H744.223L737.877 466.851ZM767.412 480.399L754.613 466.851H770.257L789.195 480.399H767.412ZM744.691 481.399H766.981L784.101 499.52H753.18L744.691 481.399ZM785.476 499.52L768.357 481.399H790.593L815.925 499.52H785.476ZM847.299 499.52H817.644L792.312 481.399H813.617L847.299 499.52ZM811.759 480.399H790.914L771.976 466.851H786.579L811.759 480.399ZM784.721 465.851H770.578L753.312 453.5H761.764L784.721 465.851ZM759.906 452.5H751.914L737.555 442.228L740.782 442.211L759.906 452.5ZM738.941 441.22L736.167 441.235L727.669 435.156L738.941 441.22ZM741.031 441.21L731.264 435.955L743.464 441.197L741.031 441.21ZM742.872 442.2L745.763 442.185L769.769 452.5H762.016L742.872 442.2ZM772.302 452.5L748.266 442.172L750.769 442.159L779.735 452.5H772.302ZM763.875 453.5H772.096L800.84 465.851H786.831L763.875 453.5ZM803.373 465.851L774.629 453.5H782.536L817.133 465.851H803.373ZM788.69 466.851H803.168L834.695 480.399H813.869L788.69 466.851ZM837.228 480.399L805.701 466.851H819.934L857.881 480.399H837.228ZM815.728 481.399H837.022L879.195 499.52H849.409L815.728 481.399ZM881.728 499.52L839.555 481.399H860.682L911.44 499.52H881.728ZM938.348 499.52H914.415L863.656 481.399H880.424L938.348 499.52ZM877.227 480.399H860.855L822.908 466.851H833.924L877.227 480.399ZM830.727 465.851H820.107L785.511 453.5H791.246L830.727 465.851ZM788.05 452.5H782.71L753.7 442.143L754.925 442.137L788.05 452.5ZM750.94 441.158L744.883 438.995L751.781 441.153L750.94 441.158ZM748.008 441.173L745.967 441.184L735.791 436.811L748.008 441.173ZM730.441 441.265L721.999 432.329L734.461 441.244L730.441 441.265ZM717.18 441.334L720.5 434.246V441.317L717.18 441.334ZM702.681 441.41L714.215 435.213L705.525 441.395L702.681 441.41ZM590.549 500.52L533.818 531H490.065L560.84 500.52H590.549Z" stroke="url(#paint0_linear_1557_195)"/>
</g>
<rect x="97.5" y="431.5" width="1245.5" height="588" stroke="black"/>
<path d="M1059.16 176.059C1069.53 170.48 1076 159.655 1076 147.879M974.618 176.573C983.017 170.565 988 160.873 988 150.547M465.951 176.568C457.512 170.565 452.5 160.849 452.5 150.493M382.355 176.056C371.975 170.479 365.5 159.649 365.5 147.867M1234.76 174.583C1247.5 170.036 1256 157.971 1256 144.446M296.843 175.33C285.105 170.275 277.5 158.72 277.5 145.94M1146.13 175.322C1157.88 170.272 1165.5 158.711 1165.5 145.921M208.223 174.591C195.495 170.038 187 157.978 187 144.46M175.836 189.628L296.147 225.754L348.327 225.765L247.543 189.717L175.836 189.628ZM253.502 189.724L354.269 225.766L411.454 225.778L327.952 189.817L253.502 189.724ZM416.101 227.779L359.864 227.767L440.194 256.5H482.79L416.101 227.779ZM333.023 189.823L416.513 225.779L472.813 225.791L406.035 189.914L333.023 189.823ZM476.537 227.792L421.159 227.78L487.846 256.5H529.97L476.537 227.792ZM410.271 189.919L477.04 225.792L533.439 225.804L483.12 190.009L410.271 189.919ZM536.251 227.805L480.764 227.793L534.195 256.5H576.59L536.251 227.805ZM486.577 190.013L536.89 225.805L596.038 225.817L562.396 190.108L486.577 190.013ZM597.923 227.817L539.703 227.805L580.041 256.5H624.945L597.923 227.817ZM565.147 190.111L598.786 225.818L658.453 225.83L641.766 190.206L565.147 190.111ZM659.39 227.83L600.671 227.818L627.692 256.5H672.819L659.39 227.83ZM643.976 190.209L660.662 225.831L720 225.843V190.303L643.976 190.209ZM720 227.843L661.599 227.831L675.028 256.5H720V227.843ZM722 190.305V225.844L781.326 225.856L797.935 190.4L722 190.305ZM780.39 227.856L722 227.844V256.5H766.972L780.39 227.856ZM800.142 190.402L783.535 225.856L843.509 225.869L876.925 190.498L800.142 190.402ZM841.619 227.869L782.598 227.856L769.181 256.5H814.57L841.619 227.869ZM879.673 190.501L846.259 225.87L903.97 225.882L953.301 190.592L879.673 190.501ZM901.175 227.881L844.37 227.869L817.322 256.5H861.169L901.175 227.881ZM956.733 190.597L907.407 225.882L964.426 225.894L1029.86 190.687L956.733 190.597ZM960.71 227.894L904.612 227.882L864.606 256.5H907.541L960.71 227.894ZM1034.07 190.693L968.646 225.895L1025.88 225.907L1107.62 190.784L1034.07 190.693ZM1021.22 227.906L964.93 227.895L911.762 256.5H954.68L1021.22 227.906ZM1112.67 190.79L1030.94 225.908L1087.99 225.92L1186.13 190.881L1112.67 190.79ZM1082.39 227.919L1026.29 227.907L959.746 256.5H1002.33L1082.39 227.919ZM1192.06 190.889L1093.93 225.922L1143.85 225.932L1260.22 190.973L1192.06 190.889ZM1137.2 227.931L1088.33 227.92L1008.28 256.5H1042.1L1137.2 227.931ZM1197.64 188.895L1266.85 188.981L1320.42 172.89C1333.53 168.952 1342.5 156.886 1342.5 143.2V107H1257V144.446C1257 158.394 1248.23 170.835 1235.1 175.525L1197.64 188.895ZM1257 105H1342.5V26H1257V105ZM1257 24H1342.5V-58H1257V24ZM1257 -60H1342.5V-143H1257V-60ZM1257 -145H1342.5V-230H1257V-145ZM1255 -145V-230H1166.5V-145H1255ZM1164.5 -145V-230H1077V-145H1164.5ZM1075 -145V-230H989V-145H1075ZM987 -145V-230H901.5V-145H987ZM899.5 -145V-230H811V-145H899.5ZM809 -145V-230H722V-145H809ZM720 -145V-230H633V-145H720ZM631 -145V-230H543V-145H631ZM541 -145V-230H453.5V-145H541ZM451.5 -145V-230H366.5V-145H451.5ZM364.5 -145V-230H278.5V-145H364.5ZM276.5 -145V-230H188V-145H276.5ZM186 -145V-230H98V-145H186ZM186 -143H98V-60H186V-143ZM186 -58H98V24H186V-58ZM186 26H98V105H186V26ZM186 107H98V143.197C98 156.884 106.976 168.951 120.085 172.888L169.147 187.62L241.932 187.71L207.886 175.533C194.76 170.838 186 158.401 186 144.46V107ZM208.56 173.649L247.891 187.717L323.295 187.811L296.447 176.249C284.342 171.035 276.5 159.12 276.5 145.94V107H188V144.46C188 157.556 196.229 169.239 208.56 173.649ZM297.238 174.412L328.366 187.817L402.304 187.909L381.882 176.937C371.178 171.186 364.5 160.018 364.5 147.867V107H278.5V145.94C278.5 158.321 285.867 169.515 297.238 174.412ZM382.828 175.175L406.54 187.914L480.304 188.006L465.371 177.383C456.669 171.193 451.5 161.173 451.5 150.493V107H366.5V147.867C366.5 159.281 372.773 169.772 382.828 175.175ZM466.531 175.754L483.76 188.01L560.509 188.105L549.981 176.929C544.212 170.807 541 162.712 541 154.3V107H453.5V150.493C453.5 160.526 458.355 169.938 466.531 175.754ZM551.436 175.558L563.26 188.109L640.828 188.205L634.116 173.875C632.064 169.494 631 164.715 631 159.877V107H543V154.3C543 162.202 546.018 169.806 551.436 175.558ZM635.927 173.027L643.038 188.208L720 188.303V167V107H633V159.877C633 164.422 633.999 168.911 635.927 173.027ZM722 167V188.305L798.871 188.401L806.073 173.027C808.001 168.911 809 164.422 809 159.877V107H722V167ZM807.884 173.875L801.078 188.404L878.812 188.5L891.034 175.563C896.471 169.809 899.5 162.192 899.5 154.275V107H811V159.877C811 164.715 809.936 169.494 807.884 173.875ZM892.488 176.937L881.561 188.503L956.092 188.596L974.036 175.76C982.172 169.939 987 160.55 987 150.547V107H901.5V154.275C901.5 162.702 898.276 170.811 892.488 176.937ZM975.2 177.386L959.524 188.6L1033.57 188.692L1058.69 175.179C1068.73 169.774 1075 159.287 1075 147.879V107H989V150.547C989 161.196 983.861 171.19 975.2 177.386ZM1059.64 176.94L1037.78 188.697L1112.26 188.79L1145.74 174.403C1157.12 169.511 1164.5 158.311 1164.5 145.921V107H1077V147.879C1077 160.023 1070.33 171.186 1059.64 176.94ZM1146.53 176.241L1117.31 188.796L1191.72 188.888L1234.42 173.641C1246.76 169.236 1255 157.549 1255 144.446V107H1166.5V145.921C1166.5 159.111 1158.65 171.033 1146.53 176.241ZM1166.5 105H1255V26H1166.5V105ZM1166.5 24H1255V-58H1166.5V24ZM1166.5 -60H1255V-143H1166.5V-60ZM1164.5 -60V-143H1077V-60H1164.5ZM1075 -60V-143H989V-60H1075ZM987 -60V-143H901.5V-60H987ZM899.5 -60V-143H811V-60H899.5ZM809 -60V-143H722V-60H809ZM720 -60V-143H633V-60H720ZM631 -60V-143H543V-60H631ZM541 -60V-143H453.5V-60H541ZM451.5 -60V-143H366.5V-60H451.5ZM364.5 -60V-143H278.5V-60H364.5ZM276.5 -60V-143H188V-60H276.5ZM276.5 -58H188V24H276.5V-58ZM276.5 26H188V105H276.5V26ZM278.5 26V105H364.5V26H278.5ZM366.5 26V105H451.5V26H366.5ZM453.5 26V105H541V26H453.5ZM543 26V105H631V26H543ZM633 26V105H720V26H633ZM722 26V105H809V26H722ZM811 26V105H899.5V26H811ZM901.5 26V105H987V26H901.5ZM989 26V105H1075V26H989ZM1077 26V105H1164.5V26H1077ZM1077 24H1164.5V-58H1077V24ZM1075 24V-58H989V24H1075ZM987 24V-58H901.5V24H987ZM899.5 24V-58H811V24H899.5ZM809 24V-58H722V24H809ZM720 24V-58H633V24H720ZM631 24V-58H543V24H631ZM541 24V-58H453.5V24H541ZM451.5 24V-58H366.5V24H451.5ZM364.5 24V-58H278.5V24H364.5ZM768.766 342.009L784.777 337H782.796L768.766 342.009ZM750.684 346.341L776.848 337H772.405L750.667 346.341L750.684 346.341ZM777.059 335H782.45L814.245 323.649H803.476L777.059 335ZM745.662 346.315L767.339 337H762.142L744.838 346.31L745.662 346.315ZM765.859 335H771.993L798.41 323.649H786.957L765.859 335ZM740.657 346.288L757.921 337H752.075L739.102 346.28L740.657 346.288ZM754.871 335H761.638L782.736 323.649H770.739L754.871 335ZM735.689 346.263L748.637 337H741.27L732.535 346.246L735.689 346.263ZM743.16 335H751.433L767.301 323.649H753.884L743.16 335ZM729.797 346.232L738.519 337H731.473L727.155 346.218L729.797 346.232ZM732.41 335H740.409L751.133 323.649H737.727L732.41 335ZM724.952 346.206L729.264 337H722V346.191L724.952 346.206ZM722 335H730.201L735.518 323.649H722V335ZM720 346.181V337H712.736L717.029 346.165L720 346.181ZM711.799 335H720V323.649H706.482L711.799 335ZM714.815 346.154L710.527 337H703.532L712.142 346.14L714.815 346.154ZM701.648 335H709.59L704.273 323.649H690.953L701.648 335ZM709.381 346.125L700.784 337H693.204L706.007 346.108L709.381 346.125ZM690.393 335H698.9L688.206 323.649H674.435L690.393 335ZM702.532 346.089L689.754 337H684.026L700.929 346.081L702.532 346.089ZM680.304 335H686.942L670.985 323.649H659.176L680.304 335ZM696.662 346.059L679.801 337H674.766L695.79 346.054L696.662 346.059ZM670.122 335H676.078L654.951 323.649H643.765L670.122 335ZM690.672 346.028L669.71 337H665.257L690.494 346.027L690.672 346.028ZM659.666 335H665.066L638.708 323.649H627.929L659.666 335ZM677.846 343.627L659.319 337H656.387L677.846 343.627ZM649.911 335H653.727L621.991 323.649H613.153L649.911 335ZM566.046 309.101L606.676 321.649H616.399L581.32 309.101H566.046ZM587.258 309.101L622.338 321.649H634.064L604.93 309.101H587.258ZM609.986 309.101L639.121 321.649H651.228L627.874 309.101H609.986ZM632.1 309.101L655.454 321.649H668.174L650.535 309.101H632.1ZM653.986 309.101L671.624 321.649H686.321L674.501 309.101H653.986ZM677.248 309.101L689.069 321.649H703.336L697.459 309.101H677.248ZM699.668 309.101L705.545 321.649H720V309.101H699.668ZM722 309.101V321.649H736.455L742.332 309.101H722ZM744.541 309.101L738.664 321.649H753.022L764.876 309.101H744.541ZM767.627 309.101L755.773 321.649H770.097L787.637 309.101H767.627ZM791.074 309.101L773.534 321.649H786.453L809.774 309.101H791.074ZM813.995 309.101L790.675 321.649H803.065L832.265 309.101H813.995ZM837.331 309.101L808.131 321.649H819.848L854.993 309.101H837.331ZM860.941 309.101L825.796 321.649H833.847L873.954 309.101H860.941ZM791.17 335L827.454 323.649H820.194L788.398 335H791.17ZM866.544 307.101H880.347L935.075 289.98H914.501L866.544 307.101ZM920.103 287.98H941.468L1035.7 258.5H1002.68L920.103 287.98ZM914.155 287.98L996.73 258.5H955.092L886.485 287.98H914.155ZM881.419 287.98L950.026 258.5H908.045L853.252 287.98H881.419ZM849.031 287.98L903.824 258.5H861.81L820.6 287.98H849.031ZM817.162 287.98L858.373 258.5H815.432L787.581 287.98H817.162ZM784.83 287.98L812.681 258.5H768.244L754.435 287.98H784.83ZM752.226 287.98L766.035 258.5H722V287.98H752.226ZM720 287.98V258.5H675.965L689.774 287.98H720ZM687.565 287.98L673.756 258.5H629.577L657.35 287.98H687.565ZM654.602 287.98L626.829 258.5H582.852L624.294 287.98H654.602ZM620.844 287.98L579.402 258.5H537.918L592.788 287.98H620.844ZM588.562 287.98L533.692 258.5H492.49L560.943 287.98H588.562ZM555.886 287.98L487.434 258.5H445.786L528.207 287.98H555.886ZM522.268 287.98L439.847 258.5H402.189L497.651 287.98H522.268ZM302.632 227.755L400.5 257.979V256.5H434.256L353.922 227.766L302.632 227.755ZM527.86 289.98H504.127L559.57 307.101H575.728L527.86 289.98ZM533.798 289.98L581.666 307.101H600.286L560.53 289.98H533.798ZM565.587 289.98L605.342 307.101H624.152L592.285 289.98H565.587ZM596.51 289.98L628.378 307.101H647.724L623.655 289.98H596.51ZM627.106 289.98L651.174 307.101H672.616L656.486 289.98H627.106ZM659.234 289.98L675.364 307.101H696.522L688.502 289.98H659.234ZM690.711 289.98L698.731 307.101H720V289.98H690.711ZM722 289.98V307.101H743.269L751.289 289.98H722ZM753.498 289.98L745.478 307.101H766.765L782.94 289.98H753.498ZM785.692 289.98L769.517 307.101H790.433L814.367 289.98H785.692ZM817.804 289.98L793.87 307.101H813.491L845.314 289.98H817.804ZM849.535 289.98L817.713 307.101H836.919L876.765 289.98H849.535ZM881.831 289.98L841.985 307.101H860.595L908.553 289.98H881.831ZM705.364 348.104L704.688 348.101L707.43 349.574L705.364 348.104ZM708.84 348.122L716.186 353.348L711.274 348.135L708.84 348.122ZM715.754 348.159L714.036 348.15L717.445 351.768L715.754 348.159ZM717.968 348.17L720 352.508V348.181L717.968 348.17ZM724.017 348.202L722 348.191V352.508L724.017 348.202ZM726.22 348.213L724.543 351.793L727.917 348.222L726.22 348.213ZM732.914 348.248L730.655 348.236L725.913 353.256L732.914 348.248ZM736.326 348.266L734.337 349.689L736.975 348.269L736.326 348.266Z" stroke="url(#paint1_linear_1557_195)" stroke-width="2"/>
</g>
<defs>
<linearGradient id="paint0_linear_1557_195" x1="720.25" y1="431" x2="720" y2="937" gradientUnits="userSpaceOnUse">
<stop offset="0.119792" stop-color="white" stop-opacity="0"/>
<stop offset="0.276042" stop-color="white" stop-opacity="0.06"/>
<stop offset="0.552083" stop-color="white" stop-opacity="0.03"/>
<stop offset="0.770833" stop-color="white" stop-opacity="0"/>
</linearGradient>
<linearGradient id="paint1_linear_1557_195" x1="720.25" y1="358" x2="720" y2="-38" gradientUnits="userSpaceOnUse">
<stop offset="0.223958" stop-color="white" stop-opacity="0"/>
<stop offset="0.5" stop-color="white" stop-opacity="0.06"/>
<stop offset="0.567708" stop-color="white" stop-opacity="0"/>
</linearGradient>
<clipPath id="clip0_1557_195">
<rect width="1440" height="920" fill="white"/>
</clipPath>
<clipPath id="clip1_1557_195">
<rect x="97" y="431" width="1246.5" height="589" fill="white"/>
</clipPath>
</defs>
</svg>
